2014014_C4_05_grf
version=1
nRows=27
nColumns=19
inDegrees=no
endheader
time	ground_force_1_vx	ground_force_1_vy	ground_force_1_vz	ground_force_1_px	ground_force_1_py	ground_force_1_pz	ground_force_1_mx	ground_force_1_my	ground_force_1_mz	ground_force_2_vx	ground_force_2_vy	ground_force_2_vz	ground_force_2_px	ground_force_2_py	ground_force_2_pz	ground_force_2_mx	ground_force_2_my	ground_force_2_mz
      0.90000000	    -31.28369153	    759.65031981	    -21.97049037	     -0.28749139	     -0.00200000	      0.30999739	      0.00000000	      0.20651451	      0.00000000	      0.00000000	      0.00000000	      0.00000000	      0.00000000	      0.00000000	      0.00000000	      0.00000000	      0.00000000	      0.00000000
      0.90100000	    -30.80178332	    757.90230185	    -21.90714218	     -0.28715686	     -0.00200000	      0.31008772	     -0.00000000	      0.22335534	      0.00000000	      0.00000000	      0.00000000	      0.00000000	      0.00000000	      0.00000000	      0.00000000	      0.00000000	      0.00000000	      0.00000000
      0.90200000	    -30.32409586	    756.19548559	    -21.84652090	     -0.28682094	     -0.00200000	      0.31017907	      0.00000000	      0.24054188	      0.00000000	      0.00000000	      0.00000000	      0.00000000	      0.00000000	      0.00000000	      0.00000000	      0.00000000	      0.00000000	      0.00000000
      0.90300000	    -29.85156700	    754.54048812	    -21.78914174	     -0.28648337	     -0.00200000	      0.31027171	      0.00000000	      0.25815535	      0.00000000	      0.00000000	      0.00000000	      0.00000000	      0.00000000	      0.00000000	      0.00000000	      0.00000000	      0.00000000	      0.00000000
      0.90400000	    -29.38307077	    752.92721391	    -21.73422575	     -0.28614455	     -0.00200000	      0.31036538	      0.00000000	      0.27610352	      0.00000000	      0.00000000	      0.00000000	      0.00000000	      0.00000000	      0.00000000	      0.00000000	      0.00000000	      0.00000000	      0.00000000
      0.90500000	    -28.91950030	    751.36639178	    -21.68224119	     -0.28580424	     -0.00200000	      0.31046033	      0.00000000	      0.29445638	      0.00000000	      0.00000000	      0.00000000	      0.00000000	      0.00000000	      0.00000000	      0.00000000	      0.00000000	      0.00000000	      0.00000000
      0.90600000	    -28.45978551	    749.84759092	    -21.63248956	     -0.28546283	     -0.00200000	      0.31055628	      0.00000000	      0.31312095	      0.00000000	      0.00000000	      0.00000000	      0.00000000	      0.00000000	      0.00000000	      0.00000000	      0.00000000	      0.00000000	      0.00000000
      0.90700000	    -28.00477669	    748.38157743	    -21.58541679	     -0.28512010	     -0.00200000	      0.31065349	      0.00000000	      0.33215829	      0.00000000	      0.00000000	      0.00000000	      0.00000000	      0.00000000	      0.00000000	      0.00000000	      0.00000000	      0.00000000	      0.00000000
      0.90800000	    -27.55344473	    746.95780873	    -21.54040486	     -0.28477641	     -0.00200000	      0.31075168	      0.00000000	      0.35148137	      0.00000000	      0.00000000	      0.00000000	      0.00000000	      0.00000000	      0.00000000	      0.00000000	      0.00000000	      0.00000000	      0.00000000
      0.90900000	    -27.10660081	    745.58690190	    -21.49789296	     -0.28443158	     -0.00200000	      0.31085109	     -0.00000000	      0.37114588	     -0.00000000	      0.00000000	      0.00000000	      0.00000000	      0.00000000	      0.00000000	      0.00000000	      0.00000000	      0.00000000	      0.00000000
      0.91000000	    -26.66326612	    744.25838888	    -21.45732567	     -0.28408589	     -0.00200000	      0.31095145	     -0.00000000	      0.39107109	     -0.00000000	      0.00000000	      0.00000000	      0.00000000	      0.00000000	      0.00000000	      0.00000000	      0.00000000	      0.00000000	      0.00000000
      0.91100000	    -26.22422762	    742.98277497	    -21.41913548	     -0.28373917	     -0.00200000	      0.31105299	     -0.00000000	      0.41130851	     -0.00000000	      0.00000000	      0.00000000	      0.00000000	      0.00000000	      0.00000000	      0.00000000	      0.00000000	      0.00000000	      0.00000000
      0.91200000	    -25.78855306	    741.74962938	    -21.38281614	     -0.28339166	     -0.00200000	      0.31115540	      0.00000000	      0.43178264	      0.00000000	      0.00000000	      0.00000000	      0.00000000	      0.00000000	      0.00000000	      0.00000000	      0.00000000	      0.00000000	      0.00000000
      0.91300000	    -25.35699587	    740.56942016	    -21.34879790	     -0.28304320	     -0.00200000	      0.31125887	      0.00000000	      0.45253608	      0.00000000	      0.00000000	      0.00000000	      0.00000000	      0.00000000	      0.00000000	      0.00000000	      0.00000000	      0.00000000	      0.00000000
      0.91400000	    -24.92866293	    739.43160474	    -21.31659463	     -0.28269402	     -0.00200000	      0.31136309	      0.00000000	      0.47349815	      0.00000000	      0.00000000	      0.00000000	      0.00000000	      0.00000000	      0.00000000	      0.00000000	      0.00000000	      0.00000000	      0.00000000
      0.91500000	    -24.50427879	    738.34657669	    -21.28665335	     -0.28234397	     -0.00200000	      0.31146820	      0.00000000	      0.49470412	      0.00000000	      0.00000000	      0.00000000	      0.00000000	      0.00000000	      0.00000000	      0.00000000	      0.00000000	      0.00000000	      0.00000000
      0.91600000	    -24.08299595	    737.30364442	    -21.25852257	     -0.28199328	     -0.00200000	      0.31157397	      0.00000000	      0.51609215	      0.00000000	      0.00000000	      0.00000000	      0.00000000	      0.00000000	      0.00000000	      0.00000000	      0.00000000	      0.00000000	      0.00000000
      0.91700000	    -23.66552223	    736.31308973	    -21.23267949	     -0.28164183	     -0.00200000	      0.31168050	      0.00000000	      0.53769266	      0.00000000	      0.00000000	      0.00000000	      0.00000000	      0.00000000	      0.00000000	      0.00000000	      0.00000000	      0.00000000	      0.00000000
      0.91800000	    -23.25103246	    735.36425829	    -21.20868713	     -0.28128982	     -0.00200000	      0.31178762	      0.00000000	      0.55945089	      0.00000000	      0.00000000	      0.00000000	      0.00000000	      0.00000000	      0.00000000	      0.00000000	      0.00000000	      0.00000000	      0.00000000
      0.91900000	    -22.84018975	    734.46717113	    -21.18704282	     -0.28093718	     -0.00200000	      0.31189543	      0.00000000	      0.58139174	      0.00000000	      0.00000000	      0.00000000	      0.00000000	      0.00000000	      0.00000000	      0.00000000	      0.00000000	      0.00000000	      0.00000000
      0.92000000	    -22.43218943	    733.61113667	    -21.16730064	     -0.28058409	     -0.00200000	      0.31200377	     -0.00000000	      0.60346646	     -0.00000000	      0.00000000	      0.00000000	      0.00000000	      0.00000000	      0.00000000	      0.00000000	      0.00000000	      0.00000000	      0.00000000
      0.92100000	    -22.02764340	    732.80610144	    -21.14995122	     -0.28023047	     -0.00200000	      0.31211273	      0.00000000	      0.62568933	      0.00000000	      0.00000000	      0.00000000	      0.00000000	      0.00000000	      0.00000000	      0.00000000	      0.00000000	      0.00000000	      0.00000000
      0.92200000	    -21.62577957	    732.04137385	    -21.13452852	     -0.27987647	     -0.00200000	      0.31222217	     -0.00000000	      0.64801606	     -0.00000000	      0.00000000	      0.00000000	      0.00000000	      0.00000000	      0.00000000	      0.00000000	      0.00000000	      0.00000000	      0.00000000
      0.92300000	    -21.22715395	    731.32652789	    -21.12153880	     -0.27952202	     -0.00200000	      0.31233215	      0.00000000	      0.67045329	      0.00000000	      0.00000000	      0.00000000	      0.00000000	      0.00000000	      0.00000000	      0.00000000	      0.00000000	      0.00000000	      0.00000000
      0.92400000	    -20.83102427	    730.65109551	    -21.11051604	     -0.27916725	     -0.00200000	      0.31244252	      0.00000000	      0.69296368	      0.00000000	      0.00000000	      0.00000000	      0.00000000	      0.00000000	      0.00000000	      0.00000000	      0.00000000	      0.00000000	      0.00000000
      0.92500000	    -20.43790277	    730.02450168	    -21.10200226	     -0.27881207	     -0.00200000	      0.31255330	      0.00000000	      0.71554853	      0.00000000	      0.00000000	      0.00000000	      0.00000000	      0.00000000	      0.00000000	      0.00000000	      0.00000000	      0.00000000	      0.00000000
      0.92600000	    -20.04710957	    729.43635285	    -21.09554261	     -0.27845659	     -0.00200000	      0.31266436	      0.00000000	      0.73818131	      0.00000000	      0.00000000	      0.00000000	      0.00000000	      0.00000000	      0.00000000	      0.00000000	      0.00000000	      0.00000000	      0.00000000
